<svg xmlns="http://www.w3.org/2000/svg" viewBox="0 0 1440 720" preserveAspectRatio="xMidYMid slice" role="img" aria-label="流れるような抽象的な光の背景">
  <defs>
    <linearGradient id="fsky" x1="0" y1="0" x2="1" y2="1">
      <stop offset="0" stop-color="#0b3252"/>
      <stop offset="0.55" stop-color="#0d4f7c"/>
      <stop offset="1" stop-color="#0a2c49"/>
    </linearGradient>
    <radialGradient id="fglow" cx="0.7" cy="0.3" r="0.7">
      <stop offset="0" stop-color="#3aa0e0" stop-opacity="0.5"/>
      <stop offset="1" stop-color="#3aa0e0" stop-opacity="0"/>
    </radialGradient>
    <linearGradient id="line" x1="0" y1="0" x2="1" y2="0">
      <stop offset="0" stop-color="#86d0f5" stop-opacity="0"/>
      <stop offset="0.5" stop-color="#86d0f5" stop-opacity="0.6"/>
      <stop offset="1" stop-color="#86d0f5" stop-opacity="0"/>
    </linearGradient>
  </defs>
  <rect width="1440" height="720" fill="url(#fsky)"/>
  <rect width="1440" height="720" fill="url(#fglow)"/>
  <g fill="none" stroke="url(#line)" stroke-width="1.6" opacity="0.7">
    <path d="M-50 220 C 300 120, 600 340, 920 200 S 1500 260, 1500 200"/>
    <path d="M-50 320 C 320 220, 640 440, 960 300 S 1500 360, 1500 300"/>
    <path d="M-50 430 C 280 360, 620 560, 940 420 S 1500 480, 1500 430"/>
    <path d="M-50 540 C 340 470, 660 660, 980 540 S 1500 580, 1500 540"/>
  </g>
  <g fill="#cfecff" opacity="0.85">
    <circle cx="300" cy="168" r="3"/><circle cx="920" cy="200" r="3.4"/>
    <circle cx="640" cy="430" r="3"/><circle cx="980" cy="540" r="3.2"/>
  </g>
</svg>
