<svg xmlns="http://www.w3.org/2000/svg" viewBox="0 0 1680 945" preserveAspectRatio="xMidYMid slice" role="img">
<defs>
<linearGradient id="bg3" x1="0" y1="0" x2="1" y2="1">
 <stop offset="0" stop-color="#0a4a86"/><stop offset="0.5" stop-color="#1466a8"/><stop offset="1" stop-color="#072f57"/>
</linearGradient>
<radialGradient id="cg3" cx="0.5" cy="0.5" r="0.55">
 <stop offset="0" stop-color="#7fd0ff" stop-opacity="0.55"/><stop offset="1" stop-color="#7fd0ff" stop-opacity="0"/>
</radialGradient>
<radialGradient id="ng3" cx="0.5" cy="0.5" r="0.5"><stop offset="0" stop-color="#eaf7ff"/><stop offset="1" stop-color="#eaf7ff" stop-opacity="0"/></radialGradient>
</defs>
<rect width="1680" height="945" fill="url(#bg3)"/>
<rect width="1680" height="945" fill="url(#cg3)"/>
<g stroke="#bfe6ff" stroke-width="1.3" opacity="0.45">
<line x1="840" y1="472" x2="529" y2="518"/>
<line x1="840" y1="472" x2="512" y2="409"/>
<line x1="840" y1="472" x2="583" y2="411"/>
<line x1="840" y1="472" x2="441" y2="432"/>
<line x1="840" y1="472" x2="497" y2="600"/>
<line x1="840" y1="472" x2="636" y2="484"/>
<line x1="840" y1="472" x2="318" y2="393"/>
<line x1="840" y1="472" x2="467" y2="557"/>
<line x1="840" y1="472" x2="495" y2="628"/>
<line x1="840" y1="472" x2="1249" y2="533"/>
<line x1="840" y1="472" x2="1293" y2="412"/>
<line x1="840" y1="472" x2="1333" y2="457"/>
<line x1="840" y1="472" x2="1162" y2="334"/>
<line x1="840" y1="472" x2="1254" y2="584"/>
<line x1="840" y1="472" x2="1068" y2="468"/>
<line x1="840" y1="472" x2="1120" y2="567"/>
<line x1="840" y1="472" x2="1231" y2="361"/>
<line x1="840" y1="472" x2="1302" y2="319"/>
<line x1="504" y1="472" x2="1176" y2="472" stroke-width="2"/>
</g>
<g fill="url(#ng3)">
<circle cx="529" cy="518" r="22" opacity="0.5"/>
<circle cx="512" cy="409" r="22" opacity="0.5"/>
<circle cx="583" cy="411" r="22" opacity="0.5"/>
<circle cx="441" cy="432" r="22" opacity="0.5"/>
<circle cx="497" cy="600" r="22" opacity="0.5"/>
<circle cx="636" cy="484" r="22" opacity="0.5"/>
<circle cx="318" cy="393" r="22" opacity="0.5"/>
<circle cx="467" cy="557" r="22" opacity="0.5"/>
<circle cx="495" cy="628" r="22" opacity="0.5"/>
<circle cx="1249" cy="533" r="22" opacity="0.5"/>
<circle cx="1293" cy="412" r="22" opacity="0.5"/>
<circle cx="1333" cy="457" r="22" opacity="0.5"/>
<circle cx="1162" cy="334" r="22" opacity="0.5"/>
<circle cx="1254" cy="584" r="22" opacity="0.5"/>
<circle cx="1068" cy="468" r="22" opacity="0.5"/>
<circle cx="1120" cy="567" r="22" opacity="0.5"/>
<circle cx="1231" cy="361" r="22" opacity="0.5"/>
<circle cx="1302" cy="319" r="22" opacity="0.5"/>
</g>
<g opacity="0.8" fill="#dff2ff"><circle cx="529" cy="510" r="6.5"/><path d="M516 527 a13 13 0 0 1 26 0 z"/></g>
<g opacity="0.8" fill="#dff2ff"><circle cx="512" cy="401" r="6.5"/><path d="M499 418 a13 13 0 0 1 26 0 z"/></g>
<g opacity="0.8" fill="#dff2ff"><circle cx="583" cy="403" r="6.5"/><path d="M570 420 a13 13 0 0 1 26 0 z"/></g>
<g opacity="0.8" fill="#dff2ff"><circle cx="441" cy="424" r="6.5"/><path d="M428 441 a13 13 0 0 1 26 0 z"/></g>
<g opacity="0.8" fill="#dff2ff"><circle cx="497" cy="592" r="6.5"/><path d="M484 609 a13 13 0 0 1 26 0 z"/></g>
<g opacity="0.8" fill="#dff2ff"><circle cx="636" cy="476" r="6.5"/><path d="M623 493 a13 13 0 0 1 26 0 z"/></g>
<g opacity="0.8" fill="#dff2ff"><circle cx="318" cy="385" r="6.5"/><path d="M305 402 a13 13 0 0 1 26 0 z"/></g>
<g opacity="0.8" fill="#dff2ff"><circle cx="467" cy="549" r="6.5"/><path d="M454 566 a13 13 0 0 1 26 0 z"/></g>
<g opacity="0.8" fill="#dff2ff"><circle cx="495" cy="620" r="6.5"/><path d="M482 637 a13 13 0 0 1 26 0 z"/></g>
<g opacity="0.8" fill="#dff2ff"><circle cx="1249" cy="525" r="6.5"/><path d="M1236 542 a13 13 0 0 1 26 0 z"/></g>
<g opacity="0.8" fill="#dff2ff"><circle cx="1293" cy="404" r="6.5"/><path d="M1280 421 a13 13 0 0 1 26 0 z"/></g>
<g opacity="0.8" fill="#dff2ff"><circle cx="1333" cy="449" r="6.5"/><path d="M1320 466 a13 13 0 0 1 26 0 z"/></g>
<g opacity="0.8" fill="#dff2ff"><circle cx="1162" cy="327" r="6.5"/><path d="M1149 343 a13 13 0 0 1 26 0 z"/></g>
<g opacity="0.8" fill="#dff2ff"><circle cx="1254" cy="576" r="6.5"/><path d="M1241 593 a13 13 0 0 1 26 0 z"/></g>
<g opacity="0.8" fill="#dff2ff"><circle cx="1068" cy="460" r="6.5"/><path d="M1055 477 a13 13 0 0 1 26 0 z"/></g>
<g opacity="0.8" fill="#dff2ff"><circle cx="1120" cy="559" r="6.5"/><path d="M1107 576 a13 13 0 0 1 26 0 z"/></g>
<g opacity="0.8" fill="#dff2ff"><circle cx="1231" cy="354" r="6.5"/><path d="M1218 371 a13 13 0 0 1 26 0 z"/></g>
<g opacity="0.8" fill="#dff2ff"><circle cx="1302" cy="311" r="6.5"/><path d="M1289 328 a13 13 0 0 1 26 0 z"/></g>
<circle cx="840" cy="472" r="46" fill="url(#ng3)"/>
<g opacity="0.95" fill="#dff2ff"><circle cx="840" cy="458" r="12.0"/><path d="M816 489 a24 24 0 0 1 48 0 z"/></g>
</svg>